<svg height="512" viewBox="0 0 60 60" width="512" xmlns="http://www.w3.org/2000/svg"><g id="073---Favourite"><path id="Shape" d="m18 33c-2.209139 0-4 1.790861-4 4v10c0 2.209139 1.790861 4 4 4s4-1.790861 4-4v-10c0-2.209139-1.790861-4-4-4zm2 14c0 1.1045695-.8954305 2-2 2s-2-.8954305-2-2v-10c0-1.1045695.8954305-2 2-2s2 .8954305 2 2z"/><path id="Shape" d="m45 28h-3c-.5522847 0-1 .4477153-1 1s.4477153 1 1 1h3c.5522847 0 1-.4477153 1-1s-.4477153-1-1-1z"/><path id="Shape" d="m57 20h-5v-11c0-3.86599325-3.1340068-7-7-7h-1.18c-.4227483-1.1957287-1.5517451-1.99643563-2.82-2h-22c-1.2682549.00356437-2.3972517.8042713-2.82 2h-1.18c-3.8659932 0-7 3.13400675-7 7v11h-5c-1.65685425 0-3 1.3431458-3 3v4c0 1.6568542 1.34314575 3 3 3h.23l6 22.3c.58894675 2.1873029 2.5748018 3.7054152 4.84 3.7h23.43c1.9206334 1.409081 3.9242483 2.7014125 6 3.87.3094011.1786328.6905989.1786328 1 0 3.75-2.12 10.42-6.38 13-11.08 3.25-5.51 3.9-12.63-1.58-15.59l.86-3.2h.22c1.6568542 0 3-1.3431458 3-3v-4c0-1.6568542-1.3431458-3-3-3zm-38-18h22c.5522847 0 1 .44771525 1 1s-.4477153 1-1 1h-22c-.5522847 0-1-.44771525-1-1s.4477153-1 1-1zm-9 7c0-2.76142375 2.2385763-5 5-5h1.18c.4227483 1.1957287 1.5517451 1.99643563 2.82 2h22c1.2682549-.00356437 2.3972517-.8042713 2.82-2h1.18c2.7614237 0 5 2.23857625 5 5v11h-40zm45.75 38.8c-2.31 4.2-8.65 8.25-11.75 10.05-3.1-1.8-9.44-5.83-11.77-10.08-4.12-7-2.53-13.77 4.82-13.77 2.359687-.0672631 4.6260959.9229155 6.18 2.7.1899799.2292703.4722463.3619561.77.3619561s.5800201-.1326858.77-.3619561c2.74-3.35 8.4-3.45 11.21-1.06s2.68 7.22-.23 12.16zm2.25-20.8c0 .5522847-.4477153 1-1 1h-6c-.5522847 0-1 .4477153-1 1s.4477153 1 1 1h3.7l-.7 2.44c-3.4829478-1.0485675-7.2603547-.2326476-10 2.16-3.7585498-3.2742943-9.2948708-3.4744023-13.28-.48-3.53 3-3.62 8.89-.23 14.64 1.1972494 1.9883763 2.7220732 3.760012 4.51 5.24h-20.93c-1.357633.0014362-2.547016-.9090569-2.9-2.22l-5.87-21.78h31.7c.5522847 0 1-.4477153 1-1s-.4477153-1-1-1h-34c-.55228475 0-1-.4477153-1-1v-4c0-.5522847.44771525-1 1-1h54c.5522847 0 1 .4477153 1 1z"/></g></svg>